<?xml version="1.0" encoding="UTF-8" standalone="no"?>
<!DOCTYPE svg PUBLIC "-//W3C//DTD SVG 1.1//EN" "http://www.w3.org/Graphics/SVG/1.1/DTD/svg11.dtd">
<svg width="100%" height="100%" viewBox="0 0 100 100" version="1.1" xmlns="http://www.w3.org/2000/svg" xmlns:xlink="http://www.w3.org/1999/xlink" xml:space="preserve" xmlns:serif="http://www.serif.com/" style="fill-rule:evenodd;clip-rule:evenodd;stroke-linejoin:round;stroke-miterlimit:2;">
    <g transform="matrix(1,0,0,1,-365.457,-162.254)">
        <g transform="matrix(1,0,0,1,-7.86432,2.18453)">
            <path d="M423.322,160.07C450.917,160.07 473.322,182.474 473.322,210.07C473.322,237.665 450.917,260.07 423.322,260.07C395.726,260.07 373.322,237.665 373.322,210.07C373.322,182.474 395.726,160.07 423.322,160.07ZM451.347,198.288C451.347,193.391 447.371,189.415 442.474,189.415L404.17,189.415C399.272,189.415 395.296,193.391 395.296,198.288L395.296,221.851C395.296,226.749 399.272,230.725 404.17,230.725L442.474,230.725C447.371,230.725 451.347,226.749 451.347,221.851L451.347,198.288ZM396.89,197.759L423.804,209.739C424.071,209.858 424.378,209.854 424.642,209.728L449.767,197.724L448.905,195.919L424.196,207.725L397.703,195.932L396.89,197.759Z"/>
        </g>
    </g>
</svg>